<svg width="200" height="208" viewBox="0 0 200 208" fill="none" xmlns="http://www.w3.org/2000/svg">
<g filter="url(#filter0_d_102_3555)">
<ellipse cx="57.6868" cy="57.7602" rx="57.6868" ry="57.7602" transform="matrix(0.988492 -0.151272 0.164127 0.986439 33.7705 48.6089)" fill="url(#paint0_linear_102_3555)"/>
<path d="M33.5238 106.371C36.7547 107.522 42.1593 105.843 41.7479 106.905C41.3365 107.968 36.7642 109.461 33.5333 108.31C30.3024 107.16 25.1611 105.906 25.5725 104.843C25.9839 103.78 30.2928 105.221 33.5238 106.371Z" fill="url(#paint1_linear_102_3555)"/>
<path d="M164.622 112.111C161.193 112.443 157.113 116.234 156.994 115.107C156.875 113.979 160.294 110.707 163.723 110.374C167.152 110.042 172.344 108.996 172.462 110.123C172.581 111.251 168.051 111.779 164.622 112.111Z" fill="url(#paint2_linear_102_3555)"/>
<path d="M165.496 106.879C162.11 107.493 158.384 111.607 158.165 110.493C157.945 109.379 161.058 105.837 164.444 105.223C167.831 104.609 172.91 103.139 173.129 104.253C173.348 105.366 168.883 106.265 165.496 106.879Z" fill="url(#paint3_linear_102_3555)"/>
<path d="M166.219 101.916C162.79 102.248 158.71 106.039 158.591 104.912C158.472 103.784 161.891 100.512 165.32 100.179C168.749 99.8472 173.94 98.8008 174.059 99.9285C174.178 101.056 169.648 101.584 166.219 101.916Z" fill="url(#paint4_linear_102_3555)"/>
<path d="M151.936 54.8204C148.544 55.4061 144.782 59.4888 144.572 58.3733C144.363 57.2578 147.507 53.7416 150.899 53.1559C154.291 52.5701 159.383 51.1417 159.592 52.2572C159.802 53.3727 155.328 54.2347 151.936 54.8204Z" fill="url(#paint5_linear_102_3555)"/>
<path d="M148.747 52.0177C145.355 52.6034 141.592 56.6861 141.383 55.5706C141.174 54.4551 144.318 50.9388 147.71 50.3531C151.102 49.7674 156.193 48.3389 156.403 49.4544C156.612 50.5699 152.138 51.432 148.747 52.0177Z" fill="url(#paint6_linear_102_3555)"/>
<path d="M146.089 48.9586C142.697 49.5443 138.935 53.627 138.726 52.5115C138.516 51.396 141.661 47.8798 145.053 47.294C148.445 46.7083 153.536 45.2798 153.746 46.3953C153.955 47.5108 149.481 48.3729 146.089 48.9586Z" fill="url(#paint7_linear_102_3555)"/>
<path d="M142.636 46.1544C139.244 46.7401 135.482 50.8228 135.273 49.7073C135.063 48.5918 138.208 45.0756 141.6 44.4898C144.992 43.9041 150.083 42.4756 150.293 43.5911C150.502 44.7066 146.028 45.5687 142.636 46.1544Z" fill="url(#paint8_linear_102_3555)"/>
<path d="M139.179 43.6056C135.787 44.1913 132.025 48.2739 131.816 47.1585C131.606 46.043 134.751 42.5267 138.143 41.941C141.535 41.3553 146.626 39.9268 146.836 41.0423C147.045 42.1578 142.571 43.0199 139.179 43.6056Z" fill="url(#paint9_linear_102_3555)"/>
<path d="M135.473 41.1039C132.175 42.0614 128.929 46.5335 128.587 45.4486C128.245 44.3638 130.945 40.5228 134.243 39.5653C137.542 38.6078 142.427 36.625 142.77 37.7098C143.112 38.7946 138.772 40.1464 135.473 41.1039Z" fill="url(#paint10_linear_102_3555)"/>
<path d="M131.941 38.7084C128.76 39.9797 126.001 44.7425 125.546 43.6962C125.092 42.65 127.375 38.5677 130.556 37.2964C133.737 36.0251 138.39 33.5804 138.844 34.6266C139.299 35.6729 135.123 37.4371 131.941 38.7084Z" fill="url(#paint11_linear_102_3555)"/>
<path d="M127.988 36.9771C125.016 38.6511 122.957 43.7292 122.358 42.7519C121.76 41.7745 123.443 37.4327 126.415 35.7587C129.387 34.0848 133.65 31.0566 134.248 32.0339C134.847 33.0113 130.959 35.3031 127.988 36.9771Z" fill="url(#paint12_linear_102_3555)"/>
<path d="M123.911 35.1473C121.007 36.9276 119.149 42.0766 118.513 41.1216C117.876 40.1666 119.388 35.767 122.292 33.9867C125.195 32.2064 129.336 29.0261 129.973 29.9811C130.609 30.9361 126.815 33.367 123.911 35.1473Z" fill="url(#paint13_linear_102_3555)"/>
<path d="M119.906 33.6042C117.195 35.6451 115.864 40.9421 115.134 40.0505C114.405 39.159 115.466 34.6399 118.177 32.599C120.888 30.5581 124.689 27.0091 125.419 27.9007C126.149 28.7922 122.617 31.5632 119.906 33.6042Z" fill="url(#paint14_linear_102_3555)"/>
<path d="M115.475 32.3167C112.878 34.4891 111.834 39.8448 111.057 38.9905C110.28 38.1363 111.097 33.5707 113.695 31.3984C116.292 29.2261 119.898 25.4939 120.674 26.3481C121.451 27.2024 118.073 30.1444 115.475 32.3167Z" fill="url(#paint15_linear_102_3555)"/>
<path d="M110.856 31.4283C108.477 33.8198 107.949 39.2447 107.094 38.4623C106.239 37.6799 106.617 33.0618 108.996 30.6703C111.375 28.2789 114.608 24.2456 115.463 25.028C116.318 25.8104 113.236 29.0369 110.856 31.4283Z" fill="url(#paint16_linear_102_3555)"/>
<path d="M105.898 31.0002C103.766 33.5966 103.775 39.0451 102.847 38.3437C101.918 37.6423 101.839 33.0107 103.971 30.4142C106.104 27.8178 108.925 23.5094 109.854 24.2108C110.782 24.9122 108.031 28.4037 105.898 31.0002Z" fill="url(#paint17_linear_102_3555)"/>
<path d="M101.054 30.6797C99.0968 33.4001 99.4649 38.8372 98.4922 38.1934C97.5195 37.5496 97.135 32.9321 99.0925 30.2116C101.05 27.4912 103.582 23.0205 104.555 23.6643C105.528 24.3081 103.012 27.9593 101.054 30.6797Z" fill="url(#paint18_linear_102_3555)"/>
<path d="M96.3002 30.7923C94.4672 33.5913 95.0802 39.008 94.0793 38.4052C93.0785 37.8024 92.4861 33.2051 94.3191 30.4061C96.1521 27.607 98.4802 23.0354 99.481 23.6382C100.482 24.241 98.1332 27.9932 96.3002 30.7923Z" fill="url(#paint19_linear_102_3555)"/>
<path d="M91.7025 30.7491C90.1799 33.7143 91.3715 39.0417 90.3112 38.5409C89.2509 38.0402 88.1679 33.5259 89.6904 30.5606C91.213 27.5954 93.0377 22.8181 94.098 23.3188C95.1582 23.8196 93.2251 27.7838 91.7025 30.7491Z" fill="url(#paint20_linear_102_3555)"/>
<path d="M166.732 96.9945C163.312 97.4053 159.328 101.289 159.181 100.164C159.034 99.0397 162.37 95.6899 165.79 95.2791C169.209 94.8684 174.373 93.7033 174.52 94.8279C174.667 95.9526 170.152 96.5837 166.732 96.9945Z" fill="url(#paint21_linear_102_3555)"/>
<path d="M166.36 92.6688C162.94 93.0796 158.955 96.9633 158.809 95.8387C158.662 94.714 161.998 91.3642 165.418 90.9535C168.837 90.5427 174.001 89.3776 174.148 90.5022C174.295 91.6269 169.78 92.2581 166.36 92.6688Z" fill="url(#paint22_linear_102_3555)"/>
<path d="M166.517 88.3309C163.097 88.7417 159.113 92.6254 158.966 91.5008C158.819 90.3761 162.155 87.0263 165.575 86.6156C168.995 86.2048 174.159 85.0397 174.305 86.1644C174.452 87.289 169.937 87.9202 166.517 88.3309Z" fill="url(#paint23_linear_102_3555)"/>
<path d="M165.979 83.7411C162.559 84.1519 158.575 88.0356 158.428 86.9109C158.281 85.7863 161.617 82.4365 165.037 82.0257C168.456 81.6149 173.62 80.4499 173.767 81.5745C173.914 82.6992 169.399 83.3303 165.979 83.7411Z" fill="url(#paint24_linear_102_3555)"/>
<path d="M165.181 79.1537C161.761 79.5645 157.777 83.4482 157.63 82.3235C157.483 81.1989 160.819 77.8491 164.239 77.4383C167.659 77.0275 172.823 75.8625 172.97 76.9871C173.116 78.1118 168.601 78.7429 165.181 79.1537Z" fill="url(#paint25_linear_102_3555)"/>
<path d="M163.802 75.391C160.382 75.8018 156.398 79.6855 156.251 78.5608C156.104 77.4362 159.44 74.0864 162.86 73.6756C166.28 73.2648 171.444 72.0998 171.591 73.2244C171.737 74.3491 167.222 74.9802 163.802 75.391Z" fill="url(#paint26_linear_102_3555)"/>
<path d="M161.994 72.016C158.574 72.4268 154.589 76.3105 154.442 75.1858C154.295 74.0612 157.632 70.7114 161.051 70.3006C164.471 69.8898 169.635 68.7248 169.782 69.8494C169.929 70.9741 165.413 71.6052 161.994 72.016Z" fill="url(#paint27_linear_102_3555)"/>
<path d="M160.694 68.0678C157.274 68.4785 153.289 72.3622 153.143 71.2376C152.996 70.1129 156.332 66.7632 159.752 66.3524C163.171 65.9416 168.335 64.7765 168.482 65.9012C168.629 67.0258 164.114 67.657 160.694 68.0678Z" fill="url(#paint28_linear_102_3555)"/>
<path d="M158.227 65.0658C154.807 65.4766 150.823 69.3603 150.676 68.2356C150.529 67.111 153.865 63.7612 157.285 63.3504C160.705 62.9396 165.869 61.7746 166.015 62.8992C166.162 64.0239 161.647 64.655 158.227 65.0658Z" fill="url(#paint29_linear_102_3555)"/>
<path d="M156.412 61.3114C152.992 61.7222 149.007 65.6059 148.86 64.4812C148.713 63.3566 152.05 60.0068 155.469 59.596C158.889 59.1853 164.053 58.0202 164.2 59.1448C164.347 60.2695 159.831 60.9006 156.412 61.3114Z" fill="url(#paint30_linear_102_3555)"/>
<path d="M154.815 57.9984C151.395 58.4092 147.411 62.2929 147.264 61.1683C147.117 60.0436 150.453 56.6938 153.873 56.283C157.292 55.8723 162.456 54.7072 162.603 55.8318C162.75 56.9565 158.235 57.5876 154.815 57.9984Z" fill="url(#paint31_linear_102_3555)"/>
<path d="M39.8842 63.8253C42.4414 66.0413 48.3574 66.1379 47.4821 67.0668C46.6069 67.9958 41.5691 67.9866 39.0119 65.7706C36.4547 63.5546 32.1235 60.606 32.9987 59.677C33.8739 58.7481 37.3271 61.6093 39.8842 63.8253Z" fill="url(#paint32_linear_102_3555)"/>
<path d="M38.6854 68.48C41.5881 70.2619 47.2412 69.7205 46.6041 70.6751C45.967 71.6297 41.1685 72.1585 38.2657 70.3766C35.3629 68.5948 30.6162 66.3229 31.2533 65.3682C31.8905 64.4136 35.7826 66.6982 38.6854 68.48Z" fill="url(#paint33_linear_102_3555)"/>
<path d="M36.7595 72.8438C39.8152 74.3726 45.3962 73.3541 44.8496 74.359C44.3029 75.3639 39.5719 76.2974 36.5163 74.7686C33.4606 73.2398 28.5231 71.3792 29.0697 70.3743C29.6164 69.3694 33.7038 71.315 36.7595 72.8438Z" fill="url(#paint34_linear_102_3555)"/>
<path d="M35.3402 77.4437C38.5711 78.5942 43.9757 76.9148 43.5643 77.9773C43.1529 79.0399 38.5806 80.5331 35.3497 79.3825C32.1188 78.232 26.9775 76.9778 27.3889 75.9152C27.8003 74.8527 32.1092 76.2932 35.3402 77.4437Z" fill="url(#paint35_linear_102_3555)"/>
<path d="M34.5423 81.5223C37.7733 82.6729 43.1778 80.9934 42.7664 82.0559C42.355 83.1185 37.7828 84.6117 34.5518 83.4611C31.3209 82.3106 26.1797 81.0564 26.591 79.9938C27.0024 78.9313 31.3114 80.3718 34.5423 81.5223Z" fill="url(#paint36_linear_102_3555)"/>
<path d="M33.7435 86.1097C36.9744 87.2603 42.379 85.5808 41.9676 86.6433C41.5562 87.7059 36.9839 89.1991 33.753 88.0485C30.5221 86.898 25.3808 85.6438 25.7922 84.5812C26.2036 83.5187 30.5126 84.9592 33.7435 86.1097Z" fill="url(#paint37_linear_102_3555)"/>
<path d="M33.2132 90.4427C36.4442 91.5933 41.8487 89.9138 41.4373 90.9764C41.0259 92.0389 36.4537 93.5321 33.2227 92.3815C29.9918 91.231 24.8506 89.9768 25.2619 88.9142C25.6733 87.8517 29.9823 89.2922 33.2132 90.4427Z" fill="url(#paint38_linear_102_3555)"/>
<path d="M33.2132 94.5213C36.4442 95.6719 41.8487 93.9924 41.4373 95.055C41.0259 96.1175 36.4537 97.6107 33.2227 96.4602C29.9918 95.3096 24.8506 94.0554 25.2619 92.9929C25.6733 91.9303 29.9823 93.3708 33.2132 94.5213Z" fill="url(#paint39_linear_102_3555)"/>
<path d="M33.5804 98.1634C36.8113 99.314 42.2159 97.6345 41.8045 98.6971C41.3931 99.7596 36.8209 101.253 33.5899 100.102C30.359 98.9517 25.2177 97.6975 25.6291 96.6349C26.0405 95.5724 30.3495 97.0129 33.5804 98.1634Z" fill="url(#paint40_linear_102_3555)"/>
<path d="M33.4788 102.678C36.7098 103.828 42.1143 102.149 41.703 103.211C41.2916 104.274 36.7193 105.767 33.4884 104.616C30.2574 103.466 25.1162 102.212 25.5276 101.149C25.939 100.087 30.2479 101.527 33.4788 102.678Z" fill="url(#paint41_linear_102_3555)"/>
<path d="M87.0294 30.8409C85.7137 33.8959 87.2685 39.1364 86.1761 38.7037C85.0838 38.271 83.6931 33.835 85.0087 30.78C86.3244 27.725 87.8171 22.8428 88.9094 23.2755C90.0017 23.7082 88.345 27.7859 87.0294 30.8409Z" fill="url(#paint42_linear_102_3555)"/>
<path d="M82.3908 31.9267C81.7597 35.1762 84.407 39.997 83.2451 39.7894C82.0833 39.5819 79.7693 35.5158 80.4004 32.2664C81.0314 29.017 81.4432 23.9446 82.605 24.1522C83.7669 24.3597 83.0218 28.6773 82.3908 31.9267Z" fill="url(#paint43_linear_102_3555)"/>
<path d="M77.8417 32.8428C77.5848 36.1389 80.7658 40.6533 79.5872 40.5688C78.4087 40.4843 75.6451 36.6852 75.9019 33.3891C76.1588 30.093 75.9899 25.0079 77.1684 25.0924C78.347 25.1768 78.0985 29.5467 77.8417 32.8428Z" fill="url(#paint44_linear_102_3555)"/>
<path d="M73.4069 34.9402C73.697 38.2337 77.5825 42.2087 76.4049 42.3041C75.2272 42.3995 71.8718 39.0675 71.5817 35.7739C71.2917 32.4803 70.2861 27.4848 71.4637 27.3895C72.6414 27.2941 73.1168 31.6466 73.4069 34.9402Z" fill="url(#paint45_linear_102_3555)"/>
<path d="M68.8815 36.8707C69.5237 40.1181 73.8155 43.6881 72.6544 43.8993C71.4932 44.1105 67.7978 41.1276 67.1556 37.8802C66.5134 34.6328 64.9766 29.7632 66.1378 29.552C67.2989 29.3408 68.2393 33.6232 68.8815 36.8707Z" fill="url(#paint46_linear_102_3555)"/>
<path d="M64.4566 38.4559C65.3842 41.6392 69.9768 44.8465 68.8385 45.1516C67.7003 45.4567 63.754 42.7857 62.8263 39.6024C61.8987 36.4191 59.9361 31.6924 61.0744 31.3873C62.2126 31.0822 63.529 35.2725 64.4566 38.4559Z" fill="url(#paint47_linear_102_3555)"/>
<path d="M60.7728 40.7512C61.7189 43.9295 66.33 47.1123 65.1936 47.4234C64.0572 47.7346 60.0954 45.0848 59.1493 41.9064C58.2032 38.7281 56.2132 34.0119 57.3496 33.7008C58.486 33.3897 59.8267 37.5729 60.7728 40.7512Z" fill="url(#paint48_linear_102_3555)"/>
<path d="M56.6244 43.2918C57.869 46.374 62.7637 49.1399 61.6617 49.5492C60.5596 49.9585 56.3621 47.6666 55.1175 44.5843C53.8729 41.502 51.4424 36.9797 52.5445 36.5704C53.6466 36.1611 55.3798 40.2095 56.6244 43.2918Z" fill="url(#paint49_linear_102_3555)"/>
<path d="M53.4369 46.3504C54.6815 49.4326 59.5762 52.1985 58.4742 52.6078C57.3721 53.0171 53.1746 50.7251 51.93 47.6429C50.6854 44.5606 48.2549 40.0383 49.357 39.629C50.4591 39.2197 52.1923 43.2681 53.4369 46.3504Z" fill="url(#paint50_linear_102_3555)"/>
<path d="M50.5121 49.6633C51.7567 52.7456 56.6514 55.5115 55.5493 55.9208C54.4473 56.3301 50.2498 54.0381 49.0052 50.9559C47.7606 47.8736 45.3301 43.3513 46.4322 42.942C47.5343 42.5327 49.2675 46.5811 50.5121 49.6633Z" fill="url(#paint51_linear_102_3555)"/>
<path d="M48.3881 52.9778C49.6327 56.0601 54.5274 58.8259 53.4253 59.2352C52.3232 59.6446 48.1258 57.3526 46.8812 54.2703C45.6366 51.1881 43.2061 46.6658 44.3082 46.2565C45.4103 45.8472 47.1435 49.8955 48.3881 52.9778Z" fill="url(#paint52_linear_102_3555)"/>
<path d="M45.707 56.4305C47.3303 59.3462 52.5372 61.5255 51.4947 62.0594C50.4521 62.5932 45.997 60.8037 44.3737 57.888C42.7504 54.9722 39.7688 50.7642 40.8113 50.2304C41.8538 49.6965 44.0837 53.5148 45.707 56.4305Z" fill="url(#paint53_linear_102_3555)"/>
<path d="M42.2144 59.7597C43.9934 62.5907 50.1501 64.0229 48.8565 64.7706C47.5629 65.5182 42.4599 63.681 40.6809 60.8501C38.9019 58.0192 35.3927 54.7348 36.6863 53.9871C37.9799 53.2394 40.4354 56.9288 42.2144 59.7597Z" fill="url(#paint54_linear_102_3555)"/>
<path d="M78.4402 55.4918C78.5077 54.9042 79.1046 54.5288 79.6639 54.7213C93.2081 59.3824 95.9818 63.7597 93.1217 74.3703C93.0129 74.7742 92.6429 75.0567 92.2246 75.0567H92.0549C91.7293 75.0567 91.4272 75.2258 91.2569 75.5033L91.1819 75.6256C90.972 75.9676 90.5592 76.1369 90.1691 76.0428C78.0681 73.1229 76.9917 68.1091 78.4402 55.4918Z" fill="#7BDB01"/>
<path d="M69.9362 84.0092C69.837 83.4274 70.3079 82.897 70.8975 82.9233C89.4386 83.7479 93.7914 88.4317 93.9262 102.7C93.9285 102.947 93.7459 103.162 93.5016 103.193L93.2515 103.226C93.0245 103.256 92.9006 103.506 93.0151 103.705C93.1343 103.911 92.986 104.171 92.7478 104.184C76.5962 105.055 72.6725 100.051 69.9362 84.0092Z" fill="#7BDB01"/>
<path d="M121.958 54.0485C122.526 53.8187 123.167 54.2003 123.234 54.8096C125.587 76.0779 119.509 83.0551 101.585 87.4933C101.42 87.5342 101.269 87.378 101.323 87.2168C101.404 86.9763 101.076 86.8176 100.937 87.0303L100.871 87.1328C100.76 87.3038 100.496 87.2494 100.451 87.0503C96.3856 69.0087 102.244 62.0223 121.958 54.0485Z" fill="#7BDB01"/>
<path d="M106.513 122.905C107.459 121.65 108.522 122.505 110.093 122.445C110.538 122.428 111.157 122.397 112.016 122.37C116.27 121.71 114.464 123.241 117.311 125.704C117.421 125.8 117.528 125.909 117.619 126.023C121.143 130.481 123.924 131.059 128.326 132.597C128.675 132.719 128.908 133.049 128.908 133.419C128.908 133.902 128.516 134.294 128.033 134.294H82.4574C80.9775 134.294 80.169 132.567 81.1165 131.431C81.1818 131.352 81.2508 131.278 81.3378 131.225C83.0298 130.187 91.4768 130.46 97.8324 129.373C98.0149 129.342 98.1929 129.283 98.3587 129.201C102.536 127.125 104.607 125.433 106.513 122.905Z" fill="#BA5400"/>
<path d="M93.3842 119.251C94.209 117.913 95.9887 118.124 96.9963 119.33C97.8989 120.41 99.2384 121.021 101.973 120.937C106.228 120.277 105.376 123.244 108.262 125.762C108.372 125.858 108.478 125.966 108.569 126.081C112.093 130.538 114.874 131.117 119.276 132.655C119.625 132.777 119.858 133.107 119.858 133.476C119.858 133.959 119.466 134.351 118.983 134.351H77.0992C75.0659 134.351 74.3448 131.659 76.1058 130.643L77.0172 130.117C77.119 130.058 77.2158 129.99 77.3045 129.913C78.5329 128.844 78.7852 128.216 84.8485 127.114C85.0307 127.081 85.2146 127.022 85.3799 126.938C89.622 124.796 91.5307 122.257 93.3842 119.251Z" fill="#EB7900"/>
<path d="M90.7377 65.4848C90.9015 65.6548 90.994 65.887 90.955 66.1199C90.6648 67.8565 90.9304 68.9552 91.0191 70.7579C91.0234 70.8463 91.0467 70.935 91.0865 71.0141C95.123 79.0374 96.726 84.1278 97.8113 91.3818C97.9175 92.0914 99.0113 92.125 99.1603 91.4231C100.053 87.2205 101.015 84.0156 102.676 79.3071C102.709 79.2113 102.72 79.1072 102.705 79.0068L101.972 74.0234C101.956 73.913 101.968 73.7991 102.016 73.6983C102.255 73.1964 102.529 73.0629 103.079 73.1668C103.254 73.1998 103.397 73.3216 103.477 73.4808L104.138 74.8039C104.348 75.2236 104.929 75.2703 105.203 74.8894L107.409 71.8263C112.272 66.1137 109.16 71.0353 108.966 72.5198C108.946 72.6754 108.926 72.8385 108.85 72.9755L105.196 79.5006C104.947 79.9445 105.305 80.4834 105.811 80.4256L109.623 79.99C109.886 79.96 110.154 80.0942 110.224 80.3492C110.293 80.6024 110.278 80.8217 110.175 81.0921C110.112 81.2565 109.964 81.3706 109.794 81.417L104.985 82.7286C104.937 82.7418 104.889 82.7608 104.846 82.7859C103.758 83.4125 103.369 84.2072 102.748 85.6651C102.735 85.6967 102.723 85.7305 102.715 85.7639C101.054 92.6493 100.307 96.4914 99.763 103.189L100.224 123.454C100.228 123.661 100.132 123.86 99.9574 123.97C99.5075 124.253 99.1573 124.326 98.6064 123.965C98.4449 123.859 98.3602 123.669 98.3623 123.476C98.4349 116.7 98.0604 113.276 95.8622 108.962C93.6571 105.054 91.3374 101.316 89.465 101.316C87.5926 101.316 85.7203 102.096 84.9401 101.94C84.1599 101.784 82.7557 101.439 84.1599 100.692C85.5642 99.9452 86.1883 99.2878 87.7486 99.2878C89.2567 99.2878 83.0692 95.3546 82.6531 95.0912C82.6377 95.0814 82.6224 95.0729 82.6064 95.0643C81.2339 94.3336 81.9866 92.6229 83.2553 93.361C83.837 93.6994 84.6598 94.2799 85.3832 94.8115C85.8755 95.1733 86.6346 94.6718 86.6054 94.0615C86.5797 93.525 86.6136 93.0086 86.6441 92.3785C86.6524 92.2073 86.7273 92.0434 86.8651 91.9416C87.2413 91.6635 87.5533 91.5931 88.0188 91.6972C88.2404 91.7468 88.3983 91.9369 88.4394 92.1602L89.4254 97.5128C89.451 97.6518 89.5241 97.7787 89.6304 97.8718C92.297 100.204 93.9416 101.988 95.9121 105.126C96.2623 105.684 97.1511 105.415 97.1074 104.758C96.331 93.0732 94.7757 85.8719 89.6014 74.1626C89.5173 73.9722 89.3419 73.8333 89.1368 73.7976L86.0504 73.2609C85.9365 73.2411 85.8289 73.1911 85.7465 73.1101C85.3512 72.7208 85.3212 72.441 85.7006 72.0095C85.8079 71.8875 85.9672 71.8263 86.1297 71.8263H87.3765C87.8372 71.8263 88.1391 71.3444 87.9381 70.9299L85.9551 66.8398C85.9036 66.7337 85.8866 66.6147 85.8701 66.4979C85.7516 65.6575 84.5754 63.9194 86.8504 65.6505C86.9261 65.7081 86.9903 65.7855 87.0323 65.8708L88.7803 69.4213C89.0721 70.014 89.9644 69.8063 89.9644 69.1456V66.035C89.9644 65.8488 90.0502 65.6743 90.1855 65.5464C90.6306 65.1256 90.3985 65.1326 90.7377 65.4848Z" fill="#549C00"/>
<path d="M113.29 95.0451L111.473 95.9968C110.887 96.3039 110.796 97.1061 111.298 97.5369L113.442 99.3739C113.498 99.422 113.548 99.4766 113.591 99.5366L114.747 101.136C115.134 101.673 115.94 101.649 116.295 101.091L117.627 98.9977C117.701 98.8821 117.799 98.7841 117.914 98.7105L119.777 97.5255C120.391 97.1348 120.344 96.2238 119.693 95.8983L117.971 95.0374C117.819 94.9615 117.691 94.8458 117.6 94.7027L116.374 92.7764C115.999 92.1869 115.133 92.2012 114.778 92.8027L113.662 94.6921C113.573 94.842 113.444 94.9643 113.29 95.0451Z" fill="#FFE4B2"/>
<path d="M67.2025 67.8823L66.1 68.5132C65.5534 68.8261 65.4654 69.5786 65.9251 70.0091L67.3537 71.3469C67.4071 71.3969 67.4545 71.453 67.4948 71.514L68.1096 72.4441C68.4924 73.0232 69.3502 72.9989 69.6996 72.3991L70.4593 71.0948C70.528 70.9768 70.6217 70.8753 70.7338 70.7973L71.8704 70.0071C72.4417 69.61 72.3954 68.7504 71.7848 68.4169L70.7925 67.8748C70.6428 67.793 70.5182 67.6719 70.4323 67.5244L69.7801 66.4046C69.4123 65.7732 68.4953 65.7878 68.1477 66.4305L67.561 67.5152C67.478 67.6685 67.3539 67.7957 67.2025 67.8823Z" fill="#FFE4B2"/>
<path d="M173.362 117.219C173.362 152.411 133.23 178.137 94.1877 178.137C55.1459 178.137 24 157.254 24 122.062C24 86.8701 84.0676 134.042 123.109 134.042C162.151 134.042 173.362 82.0273 173.362 117.219Z" fill="url(#paint55_linear_102_3555)"/>
<path d="M171.666 121.878C171.666 154.379 132.538 178.137 94.4733 178.137C56.4085 178.137 26.042 158.851 26.042 126.35C26.042 93.8491 84.6065 137.414 122.671 137.414C160.736 137.414 171.666 89.3767 171.666 121.878Z" fill="#1D6923"/>
<path d="M170.535 125.275C170.535 156.55 132.015 179.411 94.5411 179.411C57.0676 179.411 27.1729 160.854 27.1729 129.579C27.1729 98.3042 84.8276 140.225 122.301 140.225C159.775 140.225 170.535 94.0005 170.535 125.275Z" fill="url(#paint56_linear_102_3555)"/>
</g>
<defs>
<filter id="filter0_d_102_3555" x="3.89305" y="11.1844" width="190.738" height="196.377" filterUnits="userSpaceOnUse" color-interpolation-filters="sRGB">
<feFlood flood-opacity="0" result="BackgroundImageFix"/>
<feColorMatrix in="SourceAlpha" type="matrix" values="0 0 0 0 0 0 0 0 0 0 0 0 0 0 0 0 0 0 127 0" result="hardAlpha"/>
<feOffset dy="8.04278"/>
<feGaussianBlur stdDeviation="10.0535"/>
<feComposite in2="hardAlpha" operator="out"/>
<feColorMatrix type="matrix" values="0 0 0 0 0 0 0 0 0 0 0 0 0 0 0 0 0 0 0.25 0"/>
<feBlend mode="normal" in2="BackgroundImageFix" result="effect1_dropShadow_102_3555"/>
<feBlend mode="normal" in="SourceGraphic" in2="effect1_dropShadow_102_3555" result="shape"/>
</filter>
<linearGradient id="paint0_linear_102_3555" x1="30.9687" y1="18.8481" x2="57.75" y2="115.503" gradientUnits="userSpaceOnUse">
<stop offset="0.0200484" stop-color="#C29217"/>
<stop offset="0.389877" stop-color="#FFE605" stop-opacity="0.742865"/>
<stop offset="0.666667" stop-color="#C29217"/>
<stop offset="0.855158" stop-color="#FFE600"/>
<stop offset="1" stop-color="#FFE712" stop-opacity="0"/>
</linearGradient>
<linearGradient id="paint1_linear_102_3555" x1="31.8834" y1="107.591" x2="40.1075" y2="104.716" gradientUnits="userSpaceOnUse">
<stop offset="0.0200484" stop-color="#C29217"/>
<stop offset="0.389877" stop-color="#FFE605" stop-opacity="0.742865"/>
<stop offset="0.666667" stop-color="#C29217"/>
<stop offset="0.855158" stop-color="#FFE600"/>
<stop offset="1" stop-color="#FFE712" stop-opacity="0"/>
</linearGradient>
<linearGradient id="paint2_linear_102_3555" x1="165.535" y1="110.323" x2="159.569" y2="116.472" gradientUnits="userSpaceOnUse">
<stop offset="0.0200484" stop-color="#C29217"/>
<stop offset="0.389877" stop-color="#FFE605" stop-opacity="0.742865"/>
<stop offset="0.666667" stop-color="#C29217"/>
<stop offset="0.855158" stop-color="#FFE600"/>
<stop offset="1" stop-color="#FFE712" stop-opacity="0"/>
</linearGradient>
<linearGradient id="paint3_linear_102_3555" x1="166.245" y1="105.023" x2="160.847" y2="111.637" gradientUnits="userSpaceOnUse">
<stop offset="0.0200484" stop-color="#C29217"/>
<stop offset="0.389877" stop-color="#FFE605" stop-opacity="0.742865"/>
<stop offset="0.666667" stop-color="#C29217"/>
<stop offset="0.855158" stop-color="#FFE600"/>
<stop offset="1" stop-color="#FFE712" stop-opacity="0"/>
</linearGradient>
<linearGradient id="paint4_linear_102_3555" x1="167.131" y1="100.128" x2="161.166" y2="106.278" gradientUnits="userSpaceOnUse">
<stop offset="0.0200484" stop-color="#C29217"/>
<stop offset="0.389877" stop-color="#FFE605" stop-opacity="0.742865"/>
<stop offset="0.666667" stop-color="#C29217"/>
<stop offset="0.855158" stop-color="#FFE600"/>
<stop offset="1" stop-color="#FFE712" stop-opacity="0"/>
</linearGradient>
<linearGradient id="paint5_linear_102_3555" x1="152.701" y1="52.9701" x2="147.245" y2="59.54" gradientUnits="userSpaceOnUse">
<stop offset="0.0200484" stop-color="#C29217"/>
<stop offset="0.389877" stop-color="#FFE605" stop-opacity="0.742865"/>
<stop offset="0.666667" stop-color="#C29217"/>
<stop offset="0.855158" stop-color="#FFE600"/>
<stop offset="1" stop-color="#FFE712" stop-opacity="0"/>
</linearGradient>
<linearGradient id="paint6_linear_102_3555" x1="149.512" y1="50.1673" x2="144.056" y2="56.7373" gradientUnits="userSpaceOnUse">
<stop offset="0.0200484" stop-color="#C29217"/>
<stop offset="0.389877" stop-color="#FFE605" stop-opacity="0.742865"/>
<stop offset="0.666667" stop-color="#C29217"/>
<stop offset="0.855158" stop-color="#FFE600"/>
<stop offset="1" stop-color="#FFE712" stop-opacity="0"/>
</linearGradient>
<linearGradient id="paint7_linear_102_3555" x1="146.855" y1="47.1082" x2="141.399" y2="53.6782" gradientUnits="userSpaceOnUse">
<stop offset="0.0200484" stop-color="#C29217"/>
<stop offset="0.389877" stop-color="#FFE605" stop-opacity="0.742865"/>
<stop offset="0.666667" stop-color="#C29217"/>
<stop offset="0.855158" stop-color="#FFE600"/>
<stop offset="1" stop-color="#FFE712" stop-opacity="0"/>
</linearGradient>
<linearGradient id="paint8_linear_102_3555" x1="143.402" y1="44.304" x2="137.946" y2="50.874" gradientUnits="userSpaceOnUse">
<stop offset="0.0200484" stop-color="#C29217"/>
<stop offset="0.389877" stop-color="#FFE605" stop-opacity="0.742865"/>
<stop offset="0.666667" stop-color="#C29217"/>
<stop offset="0.855158" stop-color="#FFE600"/>
<stop offset="1" stop-color="#FFE712" stop-opacity="0"/>
</linearGradient>
<linearGradient id="paint9_linear_102_3555" x1="139.945" y1="41.7552" x2="134.489" y2="48.3252" gradientUnits="userSpaceOnUse">
<stop offset="0.0200484" stop-color="#C29217"/>
<stop offset="0.389877" stop-color="#FFE605" stop-opacity="0.742865"/>
<stop offset="0.666667" stop-color="#C29217"/>
<stop offset="0.855158" stop-color="#FFE600"/>
<stop offset="1" stop-color="#FFE712" stop-opacity="0"/>
</linearGradient>
<linearGradient id="paint10_linear_102_3555" x1="136.011" y1="39.1812" x2="131.362" y2="46.2982" gradientUnits="userSpaceOnUse">
<stop offset="0.0200484" stop-color="#C29217"/>
<stop offset="0.389877" stop-color="#FFE605" stop-opacity="0.742865"/>
<stop offset="0.666667" stop-color="#C29217"/>
<stop offset="0.855158" stop-color="#FFE600"/>
<stop offset="1" stop-color="#FFE712" stop-opacity="0"/>
</linearGradient>
<linearGradient id="paint11_linear_102_3555" x1="132.274" y1="36.7435" x2="128.365" y2="44.2572" gradientUnits="userSpaceOnUse">
<stop offset="0.0200484" stop-color="#C29217"/>
<stop offset="0.389877" stop-color="#FFE605" stop-opacity="0.742865"/>
<stop offset="0.666667" stop-color="#C29217"/>
<stop offset="0.855158" stop-color="#FFE600"/>
<stop offset="1" stop-color="#FFE712" stop-opacity="0"/>
</linearGradient>
<linearGradient id="paint12_linear_102_3555" x1="128.039" y1="34.9871" x2="125.169" y2="42.9182" gradientUnits="userSpaceOnUse">
<stop offset="0.0200484" stop-color="#C29217"/>
<stop offset="0.389877" stop-color="#FFE605" stop-opacity="0.742865"/>
<stop offset="0.666667" stop-color="#C29217"/>
<stop offset="0.855158" stop-color="#FFE600"/>
<stop offset="1" stop-color="#FFE712" stop-opacity="0"/>
</linearGradient>
<linearGradient id="paint13_linear_102_3555" x1="123.884" y1="33.1568" x2="121.308" y2="41.1796" gradientUnits="userSpaceOnUse">
<stop offset="0.0200484" stop-color="#C29217"/>
<stop offset="0.389877" stop-color="#FFE605" stop-opacity="0.742865"/>
<stop offset="0.666667" stop-color="#C29217"/>
<stop offset="0.855158" stop-color="#FFE600"/>
<stop offset="1" stop-color="#FFE712" stop-opacity="0"/>
</linearGradient>
<linearGradient id="paint14_linear_102_3555" x1="119.678" y1="31.6255" x2="117.865" y2="39.8367" gradientUnits="userSpaceOnUse">
<stop offset="0.0200484" stop-color="#C29217"/>
<stop offset="0.389877" stop-color="#FFE605" stop-opacity="0.742865"/>
<stop offset="0.666667" stop-color="#C29217"/>
<stop offset="0.855158" stop-color="#FFE600"/>
<stop offset="1" stop-color="#FFE712" stop-opacity="0"/>
</linearGradient>
<linearGradient id="paint15_linear_102_3555" x1="115.142" y1="30.352" x2="113.74" y2="38.6363" gradientUnits="userSpaceOnUse">
<stop offset="0.0200484" stop-color="#C29217"/>
<stop offset="0.389877" stop-color="#FFE605" stop-opacity="0.742865"/>
<stop offset="0.666667" stop-color="#C29217"/>
<stop offset="0.855158" stop-color="#FFE600"/>
<stop offset="1" stop-color="#FFE712" stop-opacity="0"/>
</linearGradient>
<linearGradient id="paint16_linear_102_3555" x1="110.337" y1="29.5011" x2="109.67" y2="37.8689" gradientUnits="userSpaceOnUse">
<stop offset="0.0200484" stop-color="#C29217"/>
<stop offset="0.389877" stop-color="#FFE605" stop-opacity="0.742865"/>
<stop offset="0.666667" stop-color="#C29217"/>
<stop offset="0.855158" stop-color="#FFE600"/>
<stop offset="1" stop-color="#FFE712" stop-opacity="0"/>
</linearGradient>
<linearGradient id="paint17_linear_102_3555" x1="105.191" y1="29.1287" x2="105.286" y2="37.5202" gradientUnits="userSpaceOnUse">
<stop offset="0.0200484" stop-color="#C29217"/>
<stop offset="0.389877" stop-color="#FFE605" stop-opacity="0.742865"/>
<stop offset="0.666667" stop-color="#C29217"/>
<stop offset="0.855158" stop-color="#FFE600"/>
<stop offset="1" stop-color="#FFE712" stop-opacity="0"/>
</linearGradient>
<linearGradient id="paint18_linear_102_3555" x1="100.225" y1="28.8548" x2="100.828" y2="37.227" gradientUnits="userSpaceOnUse">
<stop offset="0.0200484" stop-color="#C29217"/>
<stop offset="0.389877" stop-color="#FFE605" stop-opacity="0.742865"/>
<stop offset="0.666667" stop-color="#C29217"/>
<stop offset="0.855158" stop-color="#FFE600"/>
<stop offset="1" stop-color="#FFE712" stop-opacity="0"/>
</linearGradient>
<linearGradient id="paint19_linear_102_3555" x1="95.3895" y1="29.0035" x2="96.3397" y2="37.3462" gradientUnits="userSpaceOnUse">
<stop offset="0.0200484" stop-color="#C29217"/>
<stop offset="0.389877" stop-color="#FFE605" stop-opacity="0.742865"/>
<stop offset="0.666667" stop-color="#C29217"/>
<stop offset="0.855158" stop-color="#FFE600"/>
<stop offset="1" stop-color="#FFE712" stop-opacity="0"/>
</linearGradient>
<linearGradient id="paint20_linear_102_3555" x1="90.6045" y1="29.0598" x2="92.3788" y2="37.2787" gradientUnits="userSpaceOnUse">
<stop offset="0.0200484" stop-color="#C29217"/>
<stop offset="0.389877" stop-color="#FFE605" stop-opacity="0.742865"/>
<stop offset="0.666667" stop-color="#C29217"/>
<stop offset="0.855158" stop-color="#FFE600"/>
<stop offset="1" stop-color="#FFE712" stop-opacity="0"/>
</linearGradient>
<linearGradient id="paint21_linear_102_3555" x1="167.599" y1="95.1861" x2="161.788" y2="101.47" gradientUnits="userSpaceOnUse">
<stop offset="0.0200484" stop-color="#C29217"/>
<stop offset="0.389877" stop-color="#FFE605" stop-opacity="0.742865"/>
<stop offset="0.666667" stop-color="#C29217"/>
<stop offset="0.855158" stop-color="#FFE600"/>
<stop offset="1" stop-color="#FFE712" stop-opacity="0"/>
</linearGradient>
<linearGradient id="paint22_linear_102_3555" x1="167.227" y1="90.8604" x2="161.416" y2="97.1443" gradientUnits="userSpaceOnUse">
<stop offset="0.0200484" stop-color="#C29217"/>
<stop offset="0.389877" stop-color="#FFE605" stop-opacity="0.742865"/>
<stop offset="0.666667" stop-color="#C29217"/>
<stop offset="0.855158" stop-color="#FFE600"/>
<stop offset="1" stop-color="#FFE712" stop-opacity="0"/>
</linearGradient>
<linearGradient id="paint23_linear_102_3555" x1="167.385" y1="86.5225" x2="161.573" y2="92.8065" gradientUnits="userSpaceOnUse">
<stop offset="0.0200484" stop-color="#C29217"/>
<stop offset="0.389877" stop-color="#FFE605" stop-opacity="0.742865"/>
<stop offset="0.666667" stop-color="#C29217"/>
<stop offset="0.855158" stop-color="#FFE600"/>
<stop offset="1" stop-color="#FFE712" stop-opacity="0"/>
</linearGradient>
<linearGradient id="paint24_linear_102_3555" x1="166.846" y1="81.9327" x2="161.035" y2="88.2166" gradientUnits="userSpaceOnUse">
<stop offset="0.0200484" stop-color="#C29217"/>
<stop offset="0.389877" stop-color="#FFE605" stop-opacity="0.742865"/>
<stop offset="0.666667" stop-color="#C29217"/>
<stop offset="0.855158" stop-color="#FFE600"/>
<stop offset="1" stop-color="#FFE712" stop-opacity="0"/>
</linearGradient>
<linearGradient id="paint25_linear_102_3555" x1="166.049" y1="77.3453" x2="160.237" y2="83.6292" gradientUnits="userSpaceOnUse">
<stop offset="0.0200484" stop-color="#C29217"/>
<stop offset="0.389877" stop-color="#FFE605" stop-opacity="0.742865"/>
<stop offset="0.666667" stop-color="#C29217"/>
<stop offset="0.855158" stop-color="#FFE600"/>
<stop offset="1" stop-color="#FFE712" stop-opacity="0"/>
</linearGradient>
<linearGradient id="paint26_linear_102_3555" x1="164.67" y1="73.5826" x2="158.859" y2="79.8665" gradientUnits="userSpaceOnUse">
<stop offset="0.0200484" stop-color="#C29217"/>
<stop offset="0.389877" stop-color="#FFE605" stop-opacity="0.742865"/>
<stop offset="0.666667" stop-color="#C29217"/>
<stop offset="0.855158" stop-color="#FFE600"/>
<stop offset="1" stop-color="#FFE712" stop-opacity="0"/>
</linearGradient>
<linearGradient id="paint27_linear_102_3555" x1="162.861" y1="70.2076" x2="157.05" y2="76.4915" gradientUnits="userSpaceOnUse">
<stop offset="0.0200484" stop-color="#C29217"/>
<stop offset="0.389877" stop-color="#FFE605" stop-opacity="0.742865"/>
<stop offset="0.666667" stop-color="#C29217"/>
<stop offset="0.855158" stop-color="#FFE600"/>
<stop offset="1" stop-color="#FFE712" stop-opacity="0"/>
</linearGradient>
<linearGradient id="paint28_linear_102_3555" x1="161.561" y1="66.2593" x2="155.75" y2="72.5433" gradientUnits="userSpaceOnUse">
<stop offset="0.0200484" stop-color="#C29217"/>
<stop offset="0.389877" stop-color="#FFE605" stop-opacity="0.742865"/>
<stop offset="0.666667" stop-color="#C29217"/>
<stop offset="0.855158" stop-color="#FFE600"/>
<stop offset="1" stop-color="#FFE712" stop-opacity="0"/>
</linearGradient>
<linearGradient id="paint29_linear_102_3555" x1="159.095" y1="63.2574" x2="153.283" y2="69.5413" gradientUnits="userSpaceOnUse">
<stop offset="0.0200484" stop-color="#C29217"/>
<stop offset="0.389877" stop-color="#FFE605" stop-opacity="0.742865"/>
<stop offset="0.666667" stop-color="#C29217"/>
<stop offset="0.855158" stop-color="#FFE600"/>
<stop offset="1" stop-color="#FFE712" stop-opacity="0"/>
</linearGradient>
<linearGradient id="paint30_linear_102_3555" x1="157.279" y1="59.503" x2="151.468" y2="65.7869" gradientUnits="userSpaceOnUse">
<stop offset="0.0200484" stop-color="#C29217"/>
<stop offset="0.389877" stop-color="#FFE605" stop-opacity="0.742865"/>
<stop offset="0.666667" stop-color="#C29217"/>
<stop offset="0.855158" stop-color="#FFE600"/>
<stop offset="1" stop-color="#FFE712" stop-opacity="0"/>
</linearGradient>
<linearGradient id="paint31_linear_102_3555" x1="155.682" y1="56.19" x2="149.871" y2="62.4739" gradientUnits="userSpaceOnUse">
<stop offset="0.0200484" stop-color="#C29217"/>
<stop offset="0.389877" stop-color="#FFE605" stop-opacity="0.742865"/>
<stop offset="0.666667" stop-color="#C29217"/>
<stop offset="0.855158" stop-color="#FFE600"/>
<stop offset="1" stop-color="#FFE712" stop-opacity="0"/>
</linearGradient>
<linearGradient id="paint32_linear_102_3555" x1="37.7659" y1="64.5071" x2="46.7879" y2="65.4875" gradientUnits="userSpaceOnUse">
<stop offset="0.0200484" stop-color="#C29217"/>
<stop offset="0.389877" stop-color="#FFE605" stop-opacity="0.742865"/>
<stop offset="0.666667" stop-color="#C29217"/>
<stop offset="0.855158" stop-color="#FFE600"/>
<stop offset="1" stop-color="#FFE712" stop-opacity="0"/>
</linearGradient>
<linearGradient id="paint33_linear_102_3555" x1="36.8124" y1="69.3381" x2="45.5012" y2="68.3408" gradientUnits="userSpaceOnUse">
<stop offset="0.0200484" stop-color="#C29217"/>
<stop offset="0.389877" stop-color="#FFE605" stop-opacity="0.742865"/>
<stop offset="0.666667" stop-color="#C29217"/>
<stop offset="0.855158" stop-color="#FFE600"/>
<stop offset="1" stop-color="#FFE712" stop-opacity="0"/>
</linearGradient>
<linearGradient id="paint34_linear_102_3555" x1="34.973" y1="73.8573" x2="43.5232" y2="72.0672" gradientUnits="userSpaceOnUse">
<stop offset="0.0200484" stop-color="#C29217"/>
<stop offset="0.389877" stop-color="#FFE605" stop-opacity="0.742865"/>
<stop offset="0.666667" stop-color="#C29217"/>
<stop offset="0.855158" stop-color="#FFE600"/>
<stop offset="1" stop-color="#FFE712" stop-opacity="0"/>
</linearGradient>
<linearGradient id="paint35_linear_102_3555" x1="33.6998" y1="78.6634" x2="41.9239" y2="75.7886" gradientUnits="userSpaceOnUse">
<stop offset="0.0200484" stop-color="#C29217"/>
<stop offset="0.389877" stop-color="#FFE605" stop-opacity="0.742865"/>
<stop offset="0.666667" stop-color="#C29217"/>
<stop offset="0.855158" stop-color="#FFE600"/>
<stop offset="1" stop-color="#FFE712" stop-opacity="0"/>
</linearGradient>
<linearGradient id="paint36_linear_102_3555" x1="32.9019" y1="82.742" x2="41.126" y2="79.8672" gradientUnits="userSpaceOnUse">
<stop offset="0.0200484" stop-color="#C29217"/>
<stop offset="0.389877" stop-color="#FFE605" stop-opacity="0.742865"/>
<stop offset="0.666667" stop-color="#C29217"/>
<stop offset="0.855158" stop-color="#FFE600"/>
<stop offset="1" stop-color="#FFE712" stop-opacity="0"/>
</linearGradient>
<linearGradient id="paint37_linear_102_3555" x1="32.1031" y1="87.3294" x2="40.3272" y2="84.4546" gradientUnits="userSpaceOnUse">
<stop offset="0.0200484" stop-color="#C29217"/>
<stop offset="0.389877" stop-color="#FFE605" stop-opacity="0.742865"/>
<stop offset="0.666667" stop-color="#C29217"/>
<stop offset="0.855158" stop-color="#FFE600"/>
<stop offset="1" stop-color="#FFE712" stop-opacity="0"/>
</linearGradient>
<linearGradient id="paint38_linear_102_3555" x1="31.5728" y1="91.6624" x2="39.7969" y2="88.7877" gradientUnits="userSpaceOnUse">
<stop offset="0.0200484" stop-color="#C29217"/>
<stop offset="0.389877" stop-color="#FFE605" stop-opacity="0.742865"/>
<stop offset="0.666667" stop-color="#C29217"/>
<stop offset="0.855158" stop-color="#FFE600"/>
<stop offset="1" stop-color="#FFE712" stop-opacity="0"/>
</linearGradient>
<linearGradient id="paint39_linear_102_3555" x1="31.5728" y1="95.741" x2="39.7969" y2="92.8663" gradientUnits="userSpaceOnUse">
<stop offset="0.0200484" stop-color="#C29217"/>
<stop offset="0.389877" stop-color="#FFE605" stop-opacity="0.742865"/>
<stop offset="0.666667" stop-color="#C29217"/>
<stop offset="0.855158" stop-color="#FFE600"/>
<stop offset="1" stop-color="#FFE712" stop-opacity="0"/>
</linearGradient>
<linearGradient id="paint40_linear_102_3555" x1="31.94" y1="99.3831" x2="40.1641" y2="96.5084" gradientUnits="userSpaceOnUse">
<stop offset="0.0200484" stop-color="#C29217"/>
<stop offset="0.389877" stop-color="#FFE605" stop-opacity="0.742865"/>
<stop offset="0.666667" stop-color="#C29217"/>
<stop offset="0.855158" stop-color="#FFE600"/>
<stop offset="1" stop-color="#FFE712" stop-opacity="0"/>
</linearGradient>
<linearGradient id="paint41_linear_102_3555" x1="31.8384" y1="103.897" x2="40.0625" y2="101.023" gradientUnits="userSpaceOnUse">
<stop offset="0.0200484" stop-color="#C29217"/>
<stop offset="0.389877" stop-color="#FFE605" stop-opacity="0.742865"/>
<stop offset="0.666667" stop-color="#C29217"/>
<stop offset="0.855158" stop-color="#FFE600"/>
<stop offset="1" stop-color="#FFE712" stop-opacity="0"/>
</linearGradient>
<linearGradient id="paint42_linear_102_3555" x1="85.8177" y1="29.2246" x2="88.1132" y2="37.3248" gradientUnits="userSpaceOnUse">
<stop offset="0.0200484" stop-color="#C29217"/>
<stop offset="0.389877" stop-color="#FFE605" stop-opacity="0.742865"/>
<stop offset="0.666667" stop-color="#C29217"/>
<stop offset="0.855158" stop-color="#FFE600"/>
<stop offset="1" stop-color="#FFE712" stop-opacity="0"/>
</linearGradient>
<linearGradient id="paint43_linear_102_3555" x1="80.8579" y1="30.5846" x2="84.7504" y2="38.1059" gradientUnits="userSpaceOnUse">
<stop offset="0.0200484" stop-color="#C29217"/>
<stop offset="0.389877" stop-color="#FFE605" stop-opacity="0.742865"/>
<stop offset="0.666667" stop-color="#C29217"/>
<stop offset="0.855158" stop-color="#FFE600"/>
<stop offset="1" stop-color="#FFE712" stop-opacity="0"/>
</linearGradient>
<linearGradient id="paint44_linear_102_3555" x1="76.165" y1="31.6694" x2="80.8601" y2="38.7584" gradientUnits="userSpaceOnUse">
<stop offset="0.0200484" stop-color="#C29217"/>
<stop offset="0.389877" stop-color="#FFE605" stop-opacity="0.742865"/>
<stop offset="0.666667" stop-color="#C29217"/>
<stop offset="0.855158" stop-color="#FFE600"/>
<stop offset="1" stop-color="#FFE712" stop-opacity="0"/>
</linearGradient>
<linearGradient id="paint45_linear_102_3555" x1="71.5578" y1="34.0359" x2="77.3431" y2="40.3417" gradientUnits="userSpaceOnUse">
<stop offset="0.0200484" stop-color="#C29217"/>
<stop offset="0.389877" stop-color="#FFE605" stop-opacity="0.742865"/>
<stop offset="0.666667" stop-color="#C29217"/>
<stop offset="0.855158" stop-color="#FFE600"/>
<stop offset="1" stop-color="#FFE712" stop-opacity="0"/>
</linearGradient>
<linearGradient id="paint46_linear_102_3555" x1="66.9451" y1="36.1539" x2="73.3778" y2="41.8537" gradientUnits="userSpaceOnUse">
<stop offset="0.0200484" stop-color="#C29217"/>
<stop offset="0.389877" stop-color="#FFE605" stop-opacity="0.742865"/>
<stop offset="0.666667" stop-color="#C29217"/>
<stop offset="0.855158" stop-color="#FFE600"/>
<stop offset="1" stop-color="#FFE712" stop-opacity="0"/>
</linearGradient>
<linearGradient id="paint47_linear_102_3555" x1="62.4637" y1="37.8995" x2="69.3855" y2="43.0444" gradientUnits="userSpaceOnUse">
<stop offset="0.0200484" stop-color="#C29217"/>
<stop offset="0.389877" stop-color="#FFE605" stop-opacity="0.742865"/>
<stop offset="0.666667" stop-color="#C29217"/>
<stop offset="0.855158" stop-color="#FFE600"/>
<stop offset="1" stop-color="#FFE712" stop-opacity="0"/>
</linearGradient>
<linearGradient id="paint48_linear_102_3555" x1="58.7767" y1="40.2055" x2="65.729" y2="45.3124" gradientUnits="userSpaceOnUse">
<stop offset="0.0200484" stop-color="#C29217"/>
<stop offset="0.389877" stop-color="#FFE605" stop-opacity="0.742865"/>
<stop offset="0.666667" stop-color="#C29217"/>
<stop offset="0.855158" stop-color="#FFE600"/>
<stop offset="1" stop-color="#FFE712" stop-opacity="0"/>
</linearGradient>
<linearGradient id="paint49_linear_102_3555" x1="54.5847" y1="42.923" x2="62.0071" y2="47.3783" gradientUnits="userSpaceOnUse">
<stop offset="0.0200484" stop-color="#C29217"/>
<stop offset="0.389877" stop-color="#FFE605" stop-opacity="0.742865"/>
<stop offset="0.666667" stop-color="#C29217"/>
<stop offset="0.855158" stop-color="#FFE600"/>
<stop offset="1" stop-color="#FFE712" stop-opacity="0"/>
</linearGradient>
<linearGradient id="paint50_linear_102_3555" x1="51.3972" y1="45.9816" x2="58.8196" y2="50.4369" gradientUnits="userSpaceOnUse">
<stop offset="0.0200484" stop-color="#C29217"/>
<stop offset="0.389877" stop-color="#FFE605" stop-opacity="0.742865"/>
<stop offset="0.666667" stop-color="#C29217"/>
<stop offset="0.855158" stop-color="#FFE600"/>
<stop offset="1" stop-color="#FFE712" stop-opacity="0"/>
</linearGradient>
<linearGradient id="paint51_linear_102_3555" x1="48.4724" y1="49.2946" x2="55.8948" y2="53.7499" gradientUnits="userSpaceOnUse">
<stop offset="0.0200484" stop-color="#C29217"/>
<stop offset="0.389877" stop-color="#FFE605" stop-opacity="0.742865"/>
<stop offset="0.666667" stop-color="#C29217"/>
<stop offset="0.855158" stop-color="#FFE600"/>
<stop offset="1" stop-color="#FFE712" stop-opacity="0"/>
</linearGradient>
<linearGradient id="paint52_linear_102_3555" x1="46.3484" y1="52.6091" x2="53.7708" y2="57.0643" gradientUnits="userSpaceOnUse">
<stop offset="0.0200484" stop-color="#C29217"/>
<stop offset="0.389877" stop-color="#FFE605" stop-opacity="0.742865"/>
<stop offset="0.666667" stop-color="#C29217"/>
<stop offset="0.855158" stop-color="#FFE600"/>
<stop offset="1" stop-color="#FFE712" stop-opacity="0"/>
</linearGradient>
<linearGradient id="paint53_linear_102_3555" x1="43.6358" y1="56.3005" x2="51.5848" y2="59.8183" gradientUnits="userSpaceOnUse">
<stop offset="0.0200484" stop-color="#C29217"/>
<stop offset="0.389877" stop-color="#FFE605" stop-opacity="0.742865"/>
<stop offset="0.666667" stop-color="#C29217"/>
<stop offset="0.855158" stop-color="#FFE600"/>
<stop offset="1" stop-color="#FFE712" stop-opacity="0"/>
</linearGradient>
<linearGradient id="paint54_linear_102_3555" x1="39.7192" y1="59.9757" x2="48.0697" y2="64.346" gradientUnits="userSpaceOnUse">
<stop offset="0.0200484" stop-color="#C29217"/>
<stop offset="0.389877" stop-color="#FFE605" stop-opacity="0.742865"/>
<stop offset="0.666667" stop-color="#C29217"/>
<stop offset="0.855158" stop-color="#FFE600"/>
<stop offset="1" stop-color="#FFE712" stop-opacity="0"/>
</linearGradient>
<linearGradient id="paint55_linear_102_3555" x1="98.6811" y1="105" x2="98.6811" y2="178.137" gradientUnits="userSpaceOnUse">
<stop stop-color="#331E19"/>
<stop offset="0.760417" stop-color="#9D510A" stop-opacity="0.97"/>
</linearGradient>
<linearGradient id="paint56_linear_102_3555" x1="98.854" y1="114.416" x2="98.854" y2="179.411" gradientUnits="userSpaceOnUse">
<stop stop-color="#2DA304"/>
<stop offset="1" stop-color="#55B533" stop-opacity="0"/>
</linearGradient>
</defs>
</svg>
