<svg width="30" height="30" viewBox="0 0 30 30" fill="none" xmlns="http://www.w3.org/2000/svg">
<path d="M11.5582 25.3389H18.1942C17.5342 26.4909 16.2983 27.2469 14.8823 27.2469C13.4423 27.2469 12.2182 26.4909 11.5582 25.3389Z" fill="#068042"/>
<path d="M26.0542 21.4748C26.0542 22.0748 25.8622 22.6268 25.5622 23.0828C25.0462 23.8388 24.1943 24.3428 23.2103 24.3428H6.54224C6.24224 24.3428 5.95425 24.2948 5.69025 24.2108C5.05425 24.0188 4.52622 23.6228 4.16622 23.0828C3.86622 22.6268 3.67426 22.0748 3.67426 21.4748C3.67426 20.1908 4.52623 19.1108 5.67824 18.7388C5.85823 18.6908 6.03822 18.6548 6.23022 18.6308V13.1468C6.23022 8.70683 9.61423 5.05883 13.9222 4.57883V4.18282C13.9222 3.66682 14.3422 3.24683 14.8582 3.24683C15.3742 3.24683 15.7942 3.66682 15.7942 4.18282V4.57883C17.7382 4.79483 19.5502 5.64682 20.9542 7.06282C22.5862 8.67082 23.4862 10.8428 23.4862 13.1468V18.6308C24.9262 18.7868 26.0542 19.9988 26.0542 21.4748Z" fill="#068042"/>
</svg>
