<svg width="29" height="30" viewBox="0 0 29 30" fill="none" xmlns="http://www.w3.org/2000/svg">
<path d="M24.4009 20.7911C24.4009 21.8111 23.5728 22.6391 22.5528 22.6391H6.52086C5.50086 22.6391 4.67285 21.8111 4.67285 20.7911C4.67285 19.7711 5.50086 18.9431 6.52086 18.9431H7.13284V12.7751C7.13284 8.69509 10.4449 5.37109 14.5369 5.37109C16.5769 5.37109 18.4248 6.19909 19.7688 7.54309C21.1128 8.87509 21.9409 10.7231 21.9409 12.7751V18.9431H22.5528C23.5728 18.9431 24.4009 19.7711 24.4009 20.7911Z" stroke="#068042" stroke-width="1.8" stroke-linecap="round" stroke-linejoin="round"/>
<path d="M14.5369 5.38297V4.14697" stroke="#068042" stroke-width="1.8" stroke-linecap="round" stroke-linejoin="round"/>
<path d="M18.2328 22.6509C18.2328 24.7029 16.5768 26.3469 14.5368 26.3469C12.4968 26.3469 10.8408 24.6909 10.8408 22.6509H18.2328Z" stroke="#068042" stroke-width="1.8" stroke-linecap="round" stroke-linejoin="round"/>
</svg>
