<svg width="17" height="17" viewBox="0 0 17 17" fill="none" xmlns="http://www.w3.org/2000/svg">
<path d="M15.586 7.09683C15.5072 6.41663 15.1818 5.7855 14.6679 5.3158C14.154 4.84609 13.4848 4.56825 12.7793 4.5316V4.33165C12.78 3.76273 12.6645 3.19936 12.4397 2.67378C12.2149 2.1482 11.8851 1.6708 11.4692 1.26911C11.0543 0.866206 10.5612 0.546718 10.0184 0.328924C9.47568 0.111129 8.89387 -0.000662074 8.30639 2.94969e-06C7.12047 0.000423414 5.9833 0.456995 5.14473 1.2694C4.30616 2.08181 3.83488 3.1836 3.83445 4.33252V4.53469C3.13832 4.58262 2.48139 4.86536 1.97807 5.33371C1.47475 5.80206 1.15685 6.42645 1.07936 7.09838L0.333374 13.682C0.337059 14.5648 0.702176 15.41 1.34862 16.0321C1.99505 16.6542 2.87011 17.0023 3.78128 17H12.8857C13.7968 17.0023 14.6717 16.6542 15.3181 16.0321C15.9646 15.41 16.3297 14.5648 16.3334 13.682L15.586 7.09683ZM5.14773 4.33959C5.14762 3.93776 5.22914 3.53984 5.38779 3.16856C5.54645 2.79729 5.77917 2.45997 6.07242 2.1758C6.36567 1.89162 6.71366 1.66614 7.09685 1.51234C7.48004 1.35854 7.89082 1.27947 8.30559 1.27947C8.72046 1.27909 9.13124 1.35804 9.51452 1.51186C9.89781 1.66567 10.2461 1.89122 10.5392 2.1757C10.833 2.45956 11.0659 2.79684 11.2248 3.16818C11.3837 3.53951 11.4653 3.93761 11.4651 4.33959V4.52521H5.14773V4.33959ZM5.77078 8.84029C5.66657 8.8404 5.56325 8.82059 5.46695 8.782C5.37065 8.74341 5.28318 8.68676 5.20949 8.61536C5.1358 8.54397 5.07742 8.45924 5.03759 8.36594C4.99775 8.27264 4.97731 8.17265 4.97742 8.07168C4.97731 7.97072 4.99775 7.87072 5.03759 7.77742C5.07742 7.68412 5.1358 7.5993 5.20949 7.5279C5.28318 7.45651 5.37065 7.39995 5.46695 7.36136C5.56325 7.32277 5.66657 7.30297 5.77078 7.30307C5.87515 7.30286 5.97853 7.32255 6.07502 7.36107C6.17151 7.39959 6.25916 7.45613 6.33307 7.52751C6.40698 7.5989 6.46572 7.68368 6.50578 7.77704C6.54584 7.8704 6.56644 7.97057 6.56655 8.07168C6.56644 8.17279 6.54584 8.27287 6.50578 8.36623C6.46572 8.45959 6.40698 8.54437 6.33307 8.61575C6.25916 8.68713 6.17151 8.74367 6.07502 8.7822C5.97853 8.82072 5.87515 8.8405 5.77078 8.84029ZM10.8978 8.84029C10.7934 8.8405 10.69 8.82072 10.5935 8.7822C10.497 8.74367 10.4094 8.68713 10.3355 8.61575C10.2616 8.54437 10.2028 8.45959 10.1628 8.36623C10.1227 8.27287 10.1021 8.17279 10.102 8.07168C10.1021 7.97057 10.1227 7.8704 10.1628 7.77704C10.2028 7.68368 10.2616 7.5989 10.3355 7.52751C10.4094 7.45613 10.497 7.39959 10.5935 7.36107C10.69 7.32255 10.7934 7.30286 10.8978 7.30307C11.002 7.30297 11.1051 7.32277 11.2014 7.36136C11.2977 7.39995 11.3854 7.45651 11.4591 7.5279C11.5327 7.5993 11.5911 7.68412 11.631 7.77742C11.6708 7.87072 11.6912 7.97072 11.6911 8.07168C11.6912 8.17265 11.6708 8.27264 11.631 8.36594C11.5911 8.45924 11.5327 8.54397 11.4591 8.61536C11.3854 8.68676 11.2977 8.74341 11.2014 8.782C11.1051 8.82059 11.002 8.8404 10.8978 8.84029Z" fill="#34A853"/>
</svg>
