<svg width="56" height="56" viewBox="0 0 56 56" fill="none" xmlns="http://www.w3.org/2000/svg">
<path d="M7.71498 49.5738H48.285C53.184 49.5738 55.645 47.1368 55.645 42.3088V13.6898C55.645 8.8618 53.184 6.4248 48.285 6.4248H7.71498C2.83998 6.4258 0.35498 8.8398 0.35498 13.6898V42.3098C0.35498 47.1608 2.83998 49.5738 7.71498 49.5738ZM17.933 28.5748C14.746 28.5748 12.144 25.9738 12.144 22.7858C12.144 19.6218 14.746 16.9968 17.934 16.9968C21.098 16.9968 23.699 19.6218 23.699 22.7868C23.699 25.9738 21.098 28.5748 17.933 28.5748ZM7.76198 45.8008C5.51198 45.8008 4.12898 44.4408 4.12898 42.1438V40.7138L11.324 34.4338C12.355 33.5198 13.48 33.0508 14.535 33.0508C15.66 33.0508 16.855 33.5198 17.887 34.4808L22.387 38.5108L33.567 28.5738C34.738 27.5428 36.027 27.0738 37.34 27.0738C38.629 27.0738 39.965 27.5658 41.09 28.5978L51.87 38.5818V42.1918C51.87 44.4418 50.465 45.8008 48.238 45.8008H7.76198Z" fill="#777777"/>
</svg>
