<svg width="30" height="30" viewBox="0 0 30 30" fill="none" xmlns="http://www.w3.org/2000/svg">
<path d="M26.2504 8.80688H7.75037L11.2504 20.8069H24.2504L26.2504 8.80688Z" fill="#068042" stroke="#068042" stroke-width="1.41829" stroke-linecap="round" stroke-linejoin="round"/>
<path d="M6.75049 8.40686H26.7505L25.1505 19.6068C25.0401 20.4372 24.4505 21.2068 23.5505 21.2068H9.95049L8.78869 16.5596L7.76959 12.4832L6.75049 8.40686ZM6.75049 8.40686L5.15049 2.80688H2.75049M12.3505 25.2068C12.3505 24.3236 11.6337 23.6068 10.7505 23.6068C9.86729 23.6068 9.15049 24.3236 9.15049 25.2068C9.15049 26.09 9.86729 26.8068 10.7505 26.8068C11.6337 26.8068 12.3505 26.09 12.3505 25.2068ZM21.9505 25.2068C21.9505 24.3236 21.2337 23.6068 20.3505 23.6068C19.4673 23.6068 18.7505 24.3236 18.7505 25.2068C18.7505 26.09 19.4673 26.8068 20.3505 26.8068C21.2337 26.8068 21.9505 26.09 21.9505 25.2068Z" stroke="#068042" stroke-width="1.41829" stroke-linecap="round" stroke-linejoin="round"/>
</svg>
