<svg width="30" height="30" viewBox="0 0 30 30" fill="none" xmlns="http://www.w3.org/2000/svg">
<path d="M6.75024 8.40711H26.7502L25.1502 19.6071C25.0398 20.4375 24.4502 21.2071 23.5502 21.2071H9.95024L8.78845 16.5599M6.75024 8.40711L5.15024 2.80713H2.75024M6.75024 8.40711L7.76935 12.4835M8.78845 16.5599H20.3502M8.78845 16.5599L7.76935 12.4835M7.76935 12.4835H21.9502M12.3502 25.207C12.3502 24.3238 11.6334 23.607 10.7502 23.607C9.86704 23.607 9.15024 24.3238 9.15024 25.207C9.15024 26.0902 9.86704 26.807 10.7502 26.807C11.6334 26.807 12.3502 26.0902 12.3502 25.207ZM21.9502 25.207C21.9502 24.3238 21.2334 23.607 20.3502 23.607C19.467 23.607 18.7502 24.3238 18.7502 25.207C18.7502 26.0902 19.467 26.807 20.3502 26.807C21.2334 26.807 21.9502 26.0902 21.9502 25.207Z" stroke="#068042" stroke-width="1.81" stroke-linecap="round" stroke-linejoin="round"/>
</svg>
