<svg width="30" height="30" viewBox="0 0 30 30" fill="none" xmlns="http://www.w3.org/2000/svg">
<path d="M18.6548 26.3778H11.9642V19.218C11.9642 18.5561 12.5057 18.0146 13.1676 18.0146H17.4514C18.1133 18.0146 18.6548 18.5561 18.6548 19.218V26.3778V26.3778Z" stroke="#068042" stroke-width="1.805" stroke-linecap="round" stroke-linejoin="round"/>
<path d="M26.4404 14.5129V22.5873C26.4404 24.6811 24.8279 26.3778 22.8304 26.3778H7.78871C5.79118 26.3778 4.17871 24.6811 4.17871 22.5873V14.5129C4.17871 13.3818 4.64801 12.3229 5.47831 11.6009L12.9991 4.99456C14.3348 3.81529 16.2842 3.81529 17.6199 4.99456L25.1408 11.6009C25.9711 12.3229 26.4404 13.3818 26.4404 14.5129Z" stroke="#068042" stroke-width="1.805" stroke-linecap="round" stroke-linejoin="round"/>
</svg>
