<svg width="40" height="39" viewBox="0 0 40 39" fill="none" xmlns="http://www.w3.org/2000/svg">
<path d="M13.5608 3.2666H10.0952C6.70982 3.2666 3.9502 6.02625 3.9502 9.41163V12.7328C3.9502 13.3906 4.49571 13.9362 5.15353 13.9362C5.81135 13.9362 6.35686 13.3906 6.35686 12.7328V9.41163C6.35686 7.34189 8.04151 5.67327 10.0952 5.67327H13.5608C14.2186 5.67327 14.7641 5.12776 14.7641 4.46993C14.7641 3.81211 14.2347 3.2666 13.5608 3.2666Z" fill="#068042"/>
<path d="M29.6538 3.2666H26.1882C25.5304 3.2666 24.9849 3.81211 24.9849 4.46993C24.9849 5.12776 25.5304 5.67327 26.1882 5.67327H29.6538C31.7235 5.67327 33.3922 7.35794 33.3922 9.41163V12.7328C33.3922 13.3906 33.9377 13.9362 34.5955 13.9362C35.2533 13.9362 35.7989 13.3906 35.7989 12.7328V9.41163C35.8149 6.02625 33.0552 3.2666 29.6538 3.2666Z" fill="#068042"/>
<path d="M13.5608 32.821H10.0952C8.02546 32.821 6.35686 31.1363 6.35686 29.0826V25.7614C6.35686 25.1036 5.81135 24.5581 5.15353 24.5581C4.49571 24.5581 3.9502 25.1036 3.9502 25.7614V29.0826C3.9502 32.468 6.70982 35.2277 10.0952 35.2277H13.5608C14.2186 35.2277 14.7641 34.6982 14.7641 34.0243C14.7641 33.3665 14.2347 32.821 13.5608 32.821Z" fill="#068042"/>
<path d="M34.6116 24.5581C33.9538 24.5581 33.4082 25.1036 33.4082 25.7614V29.0826C33.4082 31.1524 31.7236 32.821 29.6699 32.821H26.2043C25.5465 32.821 25.001 33.3665 25.001 34.0243C25.001 34.6822 25.5465 35.2277 26.2043 35.2277H29.6699C33.0553 35.2277 35.8149 32.468 35.8149 29.0826V25.7614C35.8149 25.0876 35.2694 24.5581 34.6116 24.5581Z" fill="#068042"/>
<path d="M28.0112 9.31019C29.5108 6.23803 28.2076 23.6044 23.8347 26.5607C19.4617 29.5171 14.7728 27.3554 15.7098 25.1687C15.7098 25.1687 26.5117 12.3823 28.0112 9.31019Z" fill="#00BE13"/>
<path d="M13.1232 16.1167C15.0656 13.8508 27.6875 7.04466 27.6875 8.6632C27.6875 8.6632 18.6234 19.0207 15.0625 24.5242C14.7381 25.0255 14.1249 27.1678 13.7535 28.5354C13.6259 29.0052 13.0101 29.1251 12.7181 28.7356C12.5646 28.5308 12.509 28.2687 12.5664 28.0191L13.4439 24.2017C10.5303 21.6117 11.1807 18.3825 13.1232 16.1167Z" fill="#00BE13"/>
</svg>
