<svg width="30" height="30" viewBox="0 0 30 30" fill="none" xmlns="http://www.w3.org/2000/svg">
<path d="M11.5745 13.8509C13.5816 13.8509 15.2086 12.2239 15.2086 10.2168C15.2086 8.20979 13.5816 6.58276 11.5745 6.58276C9.5675 6.58276 7.94049 8.20979 7.94049 10.2168C7.94049 12.2239 9.5675 13.8509 11.5745 13.8509Z" stroke="#068042" stroke-width="1.805" stroke-linecap="round" stroke-linejoin="round"/>
<path d="M4.24615 23.9107V21.8409C4.24615 19.4343 6.19555 17.4849 8.60222 17.4849H15.1243C17.5309 17.4849 19.4804 19.4343 19.4804 21.8409V23.9107" stroke="#068042" stroke-width="1.805" stroke-linecap="round" stroke-linejoin="round"/>
<path d="M20.6476 14.8856C22.1363 14.8856 23.3431 13.6788 23.3431 12.1901C23.3431 10.7014 22.1363 9.49463 20.6476 9.49463C19.159 9.49463 17.9521 10.7014 17.9521 12.1901C17.9521 13.6788 19.159 14.8856 20.6476 14.8856Z" stroke="#068042" stroke-width="1.805" stroke-linecap="round" stroke-linejoin="round"/>
<path d="M21.4178 17.5813H23.2709C25.0518 17.5813 26.4958 19.0253 26.4958 20.8062V22.3465" stroke="#068042" stroke-width="1.805" stroke-linecap="round" stroke-linejoin="round"/>
</svg>
