<svg width="30" height="30" viewBox="0 0 30 30" fill="none" xmlns="http://www.w3.org/2000/svg">
<path d="M11.5744 14.7535C14.0773 14.7535 16.111 12.7199 16.111 10.217C16.111 7.71405 14.0773 5.68042 11.5744 5.68042C9.07146 5.68042 7.03784 7.71405 7.03784 10.217C7.03784 12.7199 9.07146 14.7535 11.5744 14.7535Z" fill="#068042"/>
<path d="M20.3828 21.8411V23.9108C20.3828 24.4042 19.9857 24.8133 19.4803 24.8133H4.24613C3.75276 24.8133 3.34363 24.4042 3.34363 23.9108V21.8411C3.34363 18.9411 5.70216 16.5825 8.60219 16.5825H15.1243C15.7139 16.5825 16.2795 16.6788 16.8089 16.8713C16.8089 16.8713 16.8089 16.8593 16.821 16.8713C18.8907 17.5693 20.3828 19.5307 20.3828 21.8411Z" fill="#068042"/>
<path d="M20.3828 21.8411V23.9108C20.3828 24.4042 19.9857 24.8133 19.4803 24.8133H4.24613C3.75276 24.8133 3.34363 24.4042 3.34363 23.9108V21.8411C3.34363 18.9411 5.70216 16.5825 8.60219 16.5825H15.1243C15.7139 16.5825 16.2795 16.6788 16.8089 16.8713C16.8089 16.8713 16.8089 16.8593 16.821 16.8713C18.8907 17.5693 20.3828 19.5307 20.3828 21.8411Z" fill="#068042"/>
<path d="M27.4103 20.8064V22.5031C27.4103 22.9002 27.0854 23.2251 26.6883 23.2251H22.1878V21.8413C22.1878 20.6259 21.8749 19.4707 21.3334 18.4719C21.1048 18.0628 20.8521 17.6777 20.5633 17.3288C20.3587 17.1001 20.1542 16.8715 19.9376 16.679H23.2828C23.4152 16.679 23.5355 16.679 23.6559 16.703C23.8123 16.7151 23.9687 16.7391 24.1252 16.7752C25.0397 16.9677 25.8339 17.4732 26.4235 18.147C26.5198 18.2553 26.6161 18.3757 26.7003 18.508C26.7123 18.508 26.7123 18.508 26.7003 18.5201C26.9289 18.857 27.1094 19.218 27.2298 19.6151C27.2659 19.7474 27.302 19.8798 27.326 20.0122C27.3862 20.2649 27.4103 20.5296 27.4103 20.8064Z" fill="#068042"/>
<path d="M20.6476 14.5848C22.6347 14.5848 24.2455 12.974 24.2455 10.9869C24.2455 8.99978 22.6347 7.38892 20.6476 7.38892C18.6605 7.38892 17.0496 8.99978 17.0496 10.9869C17.0496 12.974 18.6605 14.5848 20.6476 14.5848Z" fill="#068042"/>
</svg>
